<mxfile host="Electron" agent="Mozilla/5.0 (Windows NT 10.0; Win64; x64) AppleWebKit/537.36 (KHTML, like Gecko) draw.io/26.1.1 Chrome/132.0.6834.210 Electron/34.3.3 Safari/537.36" version="26.1.1">
  <diagram name="用户故事架构图" id="user-story-architecture">
    <mxGraphModel dx="1181" dy="644" grid="1" gridSize="10" guides="1" tooltips="1" connect="1" arrows="1" fold="1" page="1" pageScale="1" pageWidth="2000" pageHeight="1400" math="0" shadow="0">
      <root>
        <mxCell id="0" />
        <mxCell id="1" parent="0" />
        <mxCell id="title" value="国网智能营销报告生成系统 - 用户故事架构图" style="text;html=1;strokeColor=none;fillColor=none;align=center;verticalAlign=middle;whiteSpace=wrap;rounded=0;fontSize=20;fontStyle=1;" parent="1" vertex="1">
          <mxGeometry x="700" y="50" width="600" height="40" as="geometry" />
        </mxCell>
        <mxCell id="user-layer-bg" value="" style="rounded=1;whiteSpace=wrap;html=1;fillColor=#f0f0f0;strokeColor=#cccccc;strokeWidth=2;opacity=30;" parent="1" vertex="1">
          <mxGeometry x="100" y="150" width="1800" height="180" as="geometry" />
        </mxCell>
        <mxCell id="user-layer-title" value="用户层" style="text;html=1;strokeColor=none;fillColor=none;align=left;verticalAlign=top;whiteSpace=wrap;rounded=0;fontSize=16;fontStyle=1;" parent="1" vertex="1">
          <mxGeometry x="120" y="160" width="100" height="30" as="geometry" />
        </mxCell>
        <mxCell id="admin" value="系统管理员                • 用户权限管理        • 系统监控维护        • 性能优化" style="rounded=1;whiteSpace=wrap;html=1;fillColor=#d5e8d4;strokeColor=#82b366;fontSize=12;fontStyle=1;" parent="1" vertex="1">
          <mxGeometry x="200" y="200" width="200" height="120" as="geometry" />
        </mxCell>
        <mxCell id="analyst" value="国网营销分析师                • AI辅助报告创建        • 营销指标分析        • 异常数据深度分析" style="rounded=1;whiteSpace=wrap;html=1;fillColor=#fff2cc;strokeColor=#d6b656;fontSize=12;fontStyle=1;" parent="1" vertex="1">
          <mxGeometry x="450" y="200" width="200" height="120" as="geometry" />
        </mxCell>
        <mxCell id="dataops" value="国网数据运维员                • 营销数据源管理        • 数据质量监控        • 系统集成维护" style="rounded=1;whiteSpace=wrap;html=1;fillColor=#dae8fc;strokeColor=#6c8ebf;fontSize=12;fontStyle=1;" parent="1" vertex="1">
          <mxGeometry x="700" y="200" width="200" height="120" as="geometry" />
        </mxCell>
        <mxCell id="business-user" value="国网营销业务人员                • 营销报告查看        • 模板使用        • 协作编辑" style="rounded=1;whiteSpace=wrap;html=1;fillColor=#f8cecc;strokeColor=#b85450;fontSize=12;fontStyle=1;" parent="1" vertex="1">
          <mxGeometry x="950" y="200" width="200" height="120" as="geometry" />
        </mxCell>
        <mxCell id="manager" value="国网营销管理决策者                • 战略决策支撑        • 营销驾驶舱监控        • 危机应对决策" style="rounded=1;whiteSpace=wrap;html=1;fillColor=#e1d5e7;strokeColor=#9673a6;fontSize=12;fontStyle=1;" parent="1" vertex="1">
          <mxGeometry x="1200" y="200" width="200" height="120" as="geometry" />
        </mxCell>
        <mxCell id="app-layer-bg" value="" style="rounded=1;whiteSpace=wrap;html=1;fillColor=#e6f3ff;strokeColor=#4d94ff;strokeWidth=2;opacity=30;" parent="1" vertex="1">
          <mxGeometry x="300" y="450" width="1200" height="200" as="geometry" />
        </mxCell>
        <mxCell id="app-layer-title" value="应用层" style="text;html=1;strokeColor=none;fillColor=none;align=left;verticalAlign=top;whiteSpace=wrap;rounded=0;fontSize=16;fontStyle=1;" parent="1" vertex="1">
          <mxGeometry x="320" y="460" width="100" height="30" as="geometry" />
        </mxCell>
        <mxCell id="core-system" value="国网智能营销报告生成系统                核心业务处理平台" style="rounded=1;whiteSpace=wrap;html=1;fillColor=#e1d5e7;strokeColor=#9673a6;fontSize=16;fontStyle=1;" parent="1" vertex="1">
          <mxGeometry x="750" y="500" width="300" height="100" as="geometry" />
        </mxCell>
        <mxCell id="ai-engine" value="AI分析引擎                • 智能洞察        • 异常检测        • 预测分析" style="rounded=1;whiteSpace=wrap;html=1;fillColor=#ffe6cc;strokeColor=#d79b00;fontSize=12;fontStyle=1;" parent="1" vertex="1">
          <mxGeometry x="400" y="500" width="200" height="100" as="geometry" />
        </mxCell>
        <mxCell id="template-lib" value="营销报告模板库                • 月度营销报告        • 异常分析报告        • 部门周报" style="rounded=1;whiteSpace=wrap;html=1;fillColor=#ffe6cc;strokeColor=#d79b00;fontSize=12;fontStyle=1;" parent="1" vertex="1">
          <mxGeometry x="1200" y="500" width="200" height="100" as="geometry" />
        </mxCell>
        <mxCell id="data-layer-bg" value="" style="rounded=1;whiteSpace=wrap;html=1;fillColor=#fff2e6;strokeColor=#ff9900;strokeWidth=2;opacity=30;" parent="1" vertex="1">
          <mxGeometry x="400" y="750" width="1000" height="150" as="geometry" />
        </mxCell>
        <mxCell id="data-layer-title" value="数据层" style="text;html=1;strokeColor=none;fillColor=none;align=left;verticalAlign=top;whiteSpace=wrap;rounded=0;fontSize=16;fontStyle=1;" parent="1" vertex="1">
          <mxGeometry x="420" y="760" width="100" height="30" as="geometry" />
        </mxCell>
        <mxCell id="marketing-system" value="营销2.0系统                • 用电量数据        • 客户信息        • 营销指标" style="rounded=1;whiteSpace=wrap;html=1;fillColor=#f5f5f5;strokeColor=#666666;fontSize=12;fontStyle=1;" parent="1" vertex="1">
          <mxGeometry x="500" y="800" width="200" height="80" as="geometry" />
        </mxCell>
        <mxCell id="smart-meter" value="智能电表系统                • 实时用电数据        • 用电行为分析" style="rounded=1;whiteSpace=wrap;html=1;fillColor=#f5f5f5;strokeColor=#666666;fontSize=12;fontStyle=1;" parent="1" vertex="1">
          <mxGeometry x="800" y="800" width="200" height="80" as="geometry" />
        </mxCell>
        <mxCell id="customer-system" value="客户服务系统                • 客户满意度        • 服务记录" style="rounded=1;whiteSpace=wrap;html=1;fillColor=#f5f5f5;strokeColor=#666666;fontSize=12;fontStyle=1;" parent="1" vertex="1">
          <mxGeometry x="1100" y="800" width="200" height="80" as="geometry" />
        </mxCell>
        <mxCell id="admin-to-core" value="系统管理" style="rounded=0;orthogonalLoop=1;jettySize=auto;html=1;exitX=0.5;exitY=1;entryX=0.2;entryY=0;fontSize=11;strokeWidth=2;strokeColor=#82b366;flowAnimation=1;targetPerimeterSpacing=13;edgeStyle=orthogonalEdgeStyle;startArrow=oval;startFill=1;curved=1;" parent="1" source="admin" target="core-system" edge="1">
          <mxGeometry relative="1" as="geometry" />
        </mxCell>
        <mxCell id="analyst-to-core" value="报告创建" style="edgeStyle=orthogonalEdgeStyle;rounded=0;orthogonalLoop=1;jettySize=auto;html=1;exitX=0.5;exitY=1;entryX=0.4;entryY=0;fontSize=11;strokeWidth=2;strokeColor=#d6b656;flowAnimation=1;startArrow=oval;startFill=1;curved=1;" parent="1" source="analyst" target="core-system" edge="1">
          <mxGeometry relative="1" as="geometry" />
        </mxCell>
        <mxCell id="dataops-to-core" value="数据管理" style="edgeStyle=orthogonalEdgeStyle;rounded=0;orthogonalLoop=1;jettySize=auto;html=1;exitX=0.5;exitY=1;entryX=0.6;entryY=0;fontSize=11;strokeWidth=2;strokeColor=#6c8ebf;flowAnimation=1;startArrow=oval;startFill=1;curved=1;" parent="1" source="dataops" target="core-system" edge="1">
          <mxGeometry relative="1" as="geometry" />
        </mxCell>
        <mxCell id="business-to-core" value="报告查看" style="edgeStyle=orthogonalEdgeStyle;rounded=0;orthogonalLoop=1;jettySize=auto;html=1;exitX=0.5;exitY=1;entryX=0.8;entryY=0;fontSize=11;strokeWidth=2;strokeColor=#b85450;flowAnimation=1;startArrow=oval;startFill=1;curved=1;" parent="1" source="business-user" target="core-system" edge="1">
          <mxGeometry relative="1" as="geometry" />
        </mxCell>
        <mxCell id="manager-to-core" value="决策支撑" style="edgeStyle=orthogonalEdgeStyle;rounded=0;orthogonalLoop=1;jettySize=auto;html=1;exitX=0.5;exitY=1;entryX=1;entryY=0;fontSize=11;strokeWidth=2;strokeColor=#9673a6;flowAnimation=1;startArrow=oval;startFill=1;curved=1;" parent="1" source="manager" target="core-system" edge="1">
          <mxGeometry relative="1" as="geometry" />
        </mxCell>
        <mxCell id="ai-to-core" value="智能分析" style="edgeStyle=orthogonalEdgeStyle;rounded=0;orthogonalLoop=1;jettySize=auto;html=1;exitX=1;exitY=0.5;entryX=0;entryY=0.5;fontSize=11;strokeWidth=2;strokeColor=#d79b00;flowAnimation=1;startArrow=oval;startFill=1;curved=1;" parent="1" source="ai-engine" target="core-system" edge="1">
          <mxGeometry relative="1" as="geometry" />
        </mxCell>
        <mxCell id="core-to-template" value="模板调用" style="edgeStyle=orthogonalEdgeStyle;rounded=0;orthogonalLoop=1;jettySize=auto;html=1;exitX=1;exitY=0.5;entryX=0;entryY=0.5;fontSize=11;strokeWidth=2;strokeColor=#d79b00;flowAnimation=1;startArrow=oval;startFill=1;curved=1;" parent="1" source="core-system" target="template-lib" edge="1">
          <mxGeometry relative="1" as="geometry" />
        </mxCell>
        <mxCell id="marketing-to-core" value="营销数据" style="edgeStyle=orthogonalEdgeStyle;rounded=0;orthogonalLoop=1;jettySize=auto;html=1;exitX=0.5;exitY=0;entryX=0.2;entryY=1;fontSize=11;strokeWidth=2;strokeColor=#666666;flowAnimation=1;startArrow=oval;startFill=1;curved=1;" parent="1" source="marketing-system" target="core-system" edge="1">
          <mxGeometry relative="1" as="geometry" />
        </mxCell>
        <mxCell id="meter-to-core" value="用电数据" style="edgeStyle=orthogonalEdgeStyle;rounded=0;orthogonalLoop=1;jettySize=auto;html=1;exitX=0.5;exitY=0;entryX=0.5;entryY=1;fontSize=11;strokeWidth=2;strokeColor=#666666;flowAnimation=1;startArrow=oval;startFill=1;curved=1;" parent="1" source="smart-meter" target="core-system" edge="1">
          <mxGeometry relative="1" as="geometry" />
        </mxCell>
        <mxCell id="customer-to-core" value="客户数据" style="edgeStyle=orthogonalEdgeStyle;rounded=0;orthogonalLoop=1;jettySize=auto;html=1;exitX=0.5;exitY=0;entryX=0.8;entryY=1;fontSize=11;strokeWidth=2;strokeColor=#666666;flowAnimation=1;startArrow=oval;startFill=1;curved=1;" parent="1" source="customer-system" target="core-system" edge="1">
          <mxGeometry relative="1" as="geometry" />
        </mxCell>
        <mxCell id="dataops-to-marketing" value="配置管理" style="edgeStyle=orthogonalEdgeStyle;rounded=0;orthogonalLoop=1;jettySize=auto;html=1;exitX=0.2;exitY=1;entryX=0.5;entryY=0;fontSize=10;strokeStyle=dashed;strokeColor=#6c8ebf;flowAnimation=1;startArrow=oval;startFill=1;curved=1;" parent="1" source="dataops" target="marketing-system" edge="1">
          <mxGeometry relative="1" as="geometry" />
        </mxCell>
        <mxCell id="dataops-to-meter" value="接入管理" style="edgeStyle=orthogonalEdgeStyle;rounded=0;orthogonalLoop=1;jettySize=auto;html=1;exitX=0.5;exitY=1;entryX=0.5;entryY=0;fontSize=10;strokeStyle=dashed;strokeColor=#6c8ebf;flowAnimation=1;startArrow=oval;startFill=1;curved=1;" parent="1" source="dataops" target="smart-meter" edge="1">
          <mxGeometry relative="1" as="geometry" />
        </mxCell>
        <mxCell id="dataops-to-customer" value="质量监控" style="edgeStyle=orthogonalEdgeStyle;rounded=0;orthogonalLoop=1;jettySize=auto;html=1;exitX=0.8;exitY=1;entryX=0.5;entryY=0;fontSize=10;strokeStyle=dashed;strokeColor=#6c8ebf;flowAnimation=1;startArrow=oval;startFill=1;curved=1;" parent="1" source="dataops" target="customer-system" edge="1">
          <mxGeometry relative="1" as="geometry" />
        </mxCell>
        <mxCell id="analyst-business-collab" value="协作编辑" style="edgeStyle=orthogonalEdgeStyle;rounded=0;orthogonalLoop=1;jettySize=auto;html=1;exitX=1;exitY=0.5;entryX=0;entryY=0.5;fontSize=10;strokeStyle=dashed;strokeColor=#999999;flowAnimation=1;startArrow=oval;startFill=1;curved=1;" parent="1" source="analyst" target="business-user" edge="1">
          <mxGeometry relative="1" as="geometry">
            <Array as="points">
              <mxPoint x="650" y="170" />
              <mxPoint x="950" y="170" />
            </Array>
          </mxGeometry>
        </mxCell>
        <mxCell id="business-manager-report" value="报告提交" style="edgeStyle=orthogonalEdgeStyle;rounded=0;orthogonalLoop=1;jettySize=auto;html=1;exitX=1;exitY=0.5;entryX=0;entryY=0.5;fontSize=10;strokeStyle=dashed;strokeColor=#999999;flowAnimation=1;startArrow=oval;startFill=1;curved=1;" parent="1" source="business-user" target="manager" edge="1">
          <mxGeometry relative="1" as="geometry" />
        </mxCell>
        <mxCell id="admin-monitor" value="系统监控" style="edgeStyle=orthogonalEdgeStyle;rounded=0;orthogonalLoop=1;jettySize=auto;html=1;exitX=1;exitY=0.2;entryX=0;entryY=0.2;fontSize=10;strokeStyle=dashed;strokeColor=#999999;flowAnimation=1;startArrow=oval;startFill=1;curved=1;" parent="1" source="admin" target="dataops" edge="1">
          <mxGeometry relative="1" as="geometry">
            <Array as="points">
              <mxPoint x="400" y="180" />
              <mxPoint x="700" y="180" />
            </Array>
          </mxGeometry>
        </mxCell>
        <mxCell id="legend-bg" value="" style="rounded=1;whiteSpace=wrap;html=1;fillColor=#f9f9f9;strokeColor=#cccccc;strokeWidth=1;" parent="1" vertex="1">
          <mxGeometry x="1600" y="150" width="280" height="200" as="geometry" />
        </mxCell>
        <mxCell id="legend-title" value="图例说明" style="text;html=1;strokeColor=none;fillColor=none;align=center;verticalAlign=middle;whiteSpace=wrap;rounded=0;fontSize=14;fontStyle=1;" parent="1" vertex="1">
          <mxGeometry x="1620" y="160" width="240" height="30" as="geometry" />
        </mxCell>
        <mxCell id="legend-solid" value="" style="endArrow=classic;html=1;rounded=0;strokeWidth=2;strokeColor=#4d94ff;flowAnimation=1;startArrow=oval;startFill=1;edgeStyle=orthogonalEdgeStyle;curved=1;" parent="1" edge="1">
          <mxGeometry width="50" height="50" relative="1" as="geometry">
            <mxPoint x="1630" y="210" as="sourcePoint" />
            <mxPoint x="1680" y="210" as="targetPoint" />
          </mxGeometry>
        </mxCell>
        <mxCell id="legend-solid-text" value="主要业务流程" style="text;html=1;strokeColor=none;fillColor=none;align=left;verticalAlign=middle;whiteSpace=wrap;rounded=0;fontSize=11;" parent="1" vertex="1">
          <mxGeometry x="1690" y="200" width="100" height="20" as="geometry" />
        </mxCell>
        <mxCell id="legend-dash" value="" style="endArrow=classic;html=1;rounded=0;strokeStyle=dashed;strokeColor=#999999;flowAnimation=1;startArrow=oval;startFill=1;edgeStyle=orthogonalEdgeStyle;curved=1;" parent="1" edge="1">
          <mxGeometry width="50" height="50" relative="1" as="geometry">
            <mxPoint x="1630" y="240" as="sourcePoint" />
            <mxPoint x="1680" y="240" as="targetPoint" />
          </mxGeometry>
        </mxCell>
        <mxCell id="legend-dash-text" value="协作管理关系" style="text;html=1;strokeColor=none;fillColor=none;align=left;verticalAlign=middle;whiteSpace=wrap;rounded=0;fontSize=11;" parent="1" vertex="1">
          <mxGeometry x="1690" y="230" width="100" height="20" as="geometry" />
        </mxCell>
        <mxCell id="legend-layer1" value="用户层" style="rounded=1;whiteSpace=wrap;html=1;fillColor=#f0f0f0;strokeColor=#cccccc;fontSize=10;" parent="1" vertex="1">
          <mxGeometry x="1630" y="270" width="60" height="20" as="geometry" />
        </mxCell>
        <mxCell id="legend-layer1-text" value="五类用户角色" style="text;html=1;strokeColor=none;fillColor=none;align=left;verticalAlign=middle;whiteSpace=wrap;rounded=0;fontSize=11;" parent="1" vertex="1">
          <mxGeometry x="1700" y="265" width="100" height="30" as="geometry" />
        </mxCell>
        <mxCell id="legend-layer2" value="应用层" style="rounded=1;whiteSpace=wrap;html=1;fillColor=#e6f3ff;strokeColor=#4d94ff;fontSize=10;" parent="1" vertex="1">
          <mxGeometry x="1630" y="300" width="60" height="20" as="geometry" />
        </mxCell>
        <mxCell id="legend-layer2-text" value="核心系统与引擎" style="text;html=1;strokeColor=none;fillColor=none;align=left;verticalAlign=middle;whiteSpace=wrap;rounded=0;fontSize=11;" parent="1" vertex="1">
          <mxGeometry x="1700" y="295" width="100" height="30" as="geometry" />
        </mxCell>
        <mxCell id="legend-layer3" value="数据层" style="rounded=1;whiteSpace=wrap;html=1;fillColor=#fff2e6;strokeColor=#ff9900;fontSize=10;" parent="1" vertex="1">
          <mxGeometry x="1630" y="330" width="60" height="20" as="geometry" />
        </mxCell>
        <mxCell id="legend-layer3-text" value="数据源系统" style="text;html=1;strokeColor=none;fillColor=none;align=left;verticalAlign=middle;whiteSpace=wrap;rounded=0;fontSize=11;" parent="1" vertex="1">
          <mxGeometry x="1700" y="325" width="100" height="30" as="geometry" />
        </mxCell>
      </root>
    </mxGraphModel>
  </diagram>
</mxfile>
